<?xml version="1.0" encoding="UTF-8" standalone="no"?>
<!DOCTYPE svg PUBLIC "-//W3C//DTD SVG 1.1//EN" "http://www.w3.org/Graphics/SVG/1.1/DTD/svg11.dtd">
<svg width="100%" height="100%" viewBox="0 0 4500 4500" version="1.1" xmlns="http://www.w3.org/2000/svg" xmlns:xlink="http://www.w3.org/1999/xlink" xml:space="preserve" xmlns:serif="http://www.serif.com/" style="fill-rule:evenodd;clip-rule:evenodd;stroke-linejoin:round;stroke-miterlimit:2;">
    <g id="Layer-1" serif:id="Layer 1" transform="matrix(4.166667,0,0,4.166667,0,0)">
        <g transform="matrix(1,0,0,1,879.7011,74.9678)">
            <path d="M0,329.059C-0.115,333.98 -3.97,338.461 -9.217,339.368C-11.506,339.764 -13.892,339.614 -16.233,339.614C-76.334,339.632 -136.434,339.632 -196.534,339.623C-198.876,339.623 -201.261,339.746 -203.559,339.368C-208.841,338.514 -212.767,334.13 -212.97,329.235C-213.164,324.34 -209.651,319.877 -204.175,318.75C-201.05,318.099 -197.784,317.984 -194.571,317.976C-177.862,317.896 -161.154,317.932 -144.445,317.932L-134.339,317.932C-134.154,315.247 -133.749,313.292 -133.916,311.391C-135.175,297.693 -136.804,284.021 -137.816,270.306C-138.635,259.134 -136.222,256.344 -125.289,254.169C-113.457,251.81 -102.048,248.341 -91.467,242.364C-69.722,230.083 -63.049,210.232 -64.396,187.44C-64.484,185.829 -65.426,184.271 -66.201,182.026C-69.247,183.637 -71.844,184.878 -74.318,186.322C-118.88,212.257 -163.425,238.218 -207.978,264.17C-210.258,265.499 -212.468,266.987 -214.871,268.034C-219.995,270.253 -225.162,268.73 -228.05,264.416C-230.955,260.068 -229.969,253.826 -225.497,250.278C-222.988,248.289 -220.109,246.757 -217.345,245.111C-202.476,236.307 -187.581,227.53 -172.712,218.727C-170.969,217.697 -169.314,216.517 -167.069,215.038C-168.443,212.935 -169.508,210.971 -170.881,209.246C-178.954,199.192 -187.176,189.254 -195.196,179.165C-201.719,170.96 -201.376,166.638 -193.383,159.762C-183.523,151.276 -174.746,141.918 -168.68,130.307C-158.953,111.723 -157.183,92.972 -168.249,74.247C-170.115,71.078 -172.73,68.349 -175.688,64.519C-177.845,67.821 -179.517,70.101 -180.899,72.548C-206.579,117.929 -232.205,163.337 -257.875,208.718C-259.46,211.517 -260.939,214.449 -262.999,216.87C-266.08,220.505 -271.899,221.245 -275.852,219.035C-280.025,216.702 -282.058,211.869 -280.544,206.975C-279.778,204.483 -278.475,202.142 -277.216,199.835C-268.633,184.165 -259.988,168.53 -251.396,152.87C-249.882,150.096 -248.518,147.244 -246.695,143.661C-250.375,142.033 -253.474,140.554 -256.643,139.277C-267.771,134.788 -278.977,130.474 -290.06,125.87C-299.321,122.023 -300.968,118.457 -298.124,108.73C-293.494,92.875 -290.369,76.862 -292.393,60.232C-294.885,39.694 -306.769,26.427 -326.242,16.937C-326.709,21.269 -327.36,24.544 -327.369,27.81C-327.439,58.287 -327.404,88.773 -327.395,119.25C-327.395,140.351 -327.334,161.453 -327.404,182.554C-327.413,186.04 -327.536,189.632 -328.328,193.004C-329.579,198.286 -333.417,200.9 -338.576,200.76C-343.461,200.628 -347.537,197.423 -348.523,192.44C-349.034,189.887 -348.902,187.193 -348.911,184.562C-348.937,167.272 -348.919,149.982 -348.919,132.683L-348.919,121.846C-352.344,121.846 -355.152,121.503 -357.855,121.899C-371.157,123.845 -384.441,125.993 -397.734,128.062C-407.294,129.541 -412.127,126.16 -413.685,116.406C-415.736,103.527 -419.46,91.273 -426.626,80.304C-439.796,60.127 -458.6,50.954 -482.598,52.336C-484.033,52.415 -485.441,52.846 -488.012,53.339C-486.542,56.306 -485.459,58.885 -484.05,61.262C-457.174,106.626 -430.253,151.963 -403.342,197.3C-401.704,200.073 -399.838,202.731 -398.447,205.628C-395.797,211.121 -397.267,216.482 -401.968,219.519C-406.704,222.583 -412.004,221.685 -416.036,216.87C-417.717,214.862 -419.011,212.521 -420.385,210.276C-429.558,195.284 -438.687,180.257 -447.869,165.273C-449.524,162.562 -451.346,159.947 -453.415,156.805C-455.73,158.442 -457.658,159.639 -459.41,161.065C-469.63,169.393 -479.719,177.897 -490.054,186.084C-497.687,192.123 -502.405,191.296 -508.796,183.919C-514.739,177.061 -520.54,170.01 -527.134,163.838C-531.993,159.287 -537.742,155.467 -543.614,152.297C-554.899,146.197 -566.969,145.061 -579.355,148.776C-588.105,151.39 -596.152,155.343 -604.356,161.919C-600.606,164.217 -597.534,166.189 -594.382,168.02C-549.336,194.28 -504.271,220.514 -459.225,246.774C-456.954,248.095 -454.577,249.363 -452.605,251.07C-448.582,254.574 -447.754,259.469 -450.087,263.738C-452.596,268.307 -457.799,270.499 -462.861,268.739C-465.317,267.876 -467.579,266.397 -469.851,265.068C-484.772,256.344 -499.659,247.567 -514.58,238.834C-517.08,237.364 -519.642,235.999 -522.855,234.221C-524.141,236.439 -525.452,238.253 -526.297,240.26C-531.632,252.946 -536.703,265.737 -542.231,278.334C-543.569,281.389 -545.814,284.453 -548.455,286.442C-552.461,289.479 -556.757,287.534 -560.842,285.518C-574.047,278.995 -588.044,276.935 -602.684,277.991C-625.801,279.672 -649.077,297.992 -654.218,318.891L-642.977,318.891C-590.209,318.9 -537.442,318.891 -484.666,318.9C-482.034,318.9 -479.376,318.768 -476.761,319.015C-470.502,319.622 -467.104,323.363 -467.139,329.35C-467.166,335.133 -470.775,338.98 -476.946,339.605C-478.971,339.817 -481.04,339.693 -483.091,339.693C-543.191,339.702 -603.291,339.702 -663.391,339.693C-679.079,339.685 -682.415,335.028 -678.111,319.525C-667.344,280.826 -634.182,254.97 -591.592,256.229C-580.94,256.546 -570.367,259.706 -558.491,261.775C-553.368,249.495 -547.918,236.404 -542.311,222.935C-545.515,220.963 -547.936,219.387 -550.427,217.944C-574.768,203.858 -599.127,189.799 -623.477,175.714C-625.502,174.543 -627.615,173.452 -629.437,171.999C-635.098,167.492 -636.083,160.863 -630.81,156.003C-610.439,137.217 -587.745,123.308 -558.517,125.87C-542.874,127.243 -529.264,134.11 -517.397,144.128C-510.275,150.14 -503.778,156.893 -496.41,163.874C-485.934,155.264 -475.397,146.602 -464.56,137.692C-472.58,123.739 -480.142,110.552 -487.73,97.382C-496.357,82.408 -505.134,67.512 -513.585,52.432C-518.119,44.342 -515.601,38.426 -506.886,35.222C-506.34,35.02 -505.794,34.799 -505.231,34.641C-462.632,22.334 -421.996,39.826 -403.359,78.561C-400.084,85.374 -398.007,92.769 -395.375,99.891C-394.776,101.502 -394.177,103.113 -393.235,105.657C-378.763,103.562 -364.387,101.485 -348.911,99.248L-348.911,89.239C-348.902,61.984 -348.911,34.72 -348.893,7.465C-348.893,4.833 -349.06,2.139 -348.594,-0.423C-347.449,-6.682 -341.666,-10.758 -335.582,-9.006C-302.218,0.607 -270.385,22.704 -270.464,69.572C-270.473,75.981 -271.142,82.425 -271.961,88.79C-272.78,95.129 -274.17,101.388 -275.517,108.835C-262.673,114.012 -249.785,119.205 -236.096,124.725C-233.834,121.134 -231.756,118.052 -229.899,114.839C-216.967,92.54 -204.078,70.215 -191.173,47.899C-190.143,46.129 -189.227,44.272 -188.039,42.608C-183.778,36.631 -177.889,35.151 -172.105,39.483C-155.044,52.265 -143.388,68.727 -140.325,90.225C-136.487,117.075 -146.522,139.585 -163.214,159.771C-166.365,163.592 -169.895,167.113 -173.98,171.55C-165.335,182.22 -156.787,192.775 -147.808,203.858C-144.462,202.071 -141.637,200.68 -138.916,199.113C-115.561,185.662 -92.224,172.184 -68.877,158.724C-66.852,157.553 -64.837,156.338 -62.706,155.387C-55.69,152.253 -49.792,154.604 -47.371,161.911C-45.909,166.33 -44.633,171.013 -44.474,175.617C-44.078,187.273 -42.881,199.192 -44.659,210.584C-48.629,236.017 -64.44,253.113 -87.197,263.967C-94.301,267.348 -101.934,269.61 -109.328,272.375C-111.203,273.07 -113.096,273.721 -115.711,274.654C-114.936,283.246 -114.214,291.645 -113.404,300.026C-113.07,303.521 -112.515,306.998 -112.137,310.484C-111.441,316.91 -110.957,317.474 -104.795,317.852C-102.171,318.02 -99.521,317.932 -96.88,317.932C-70.788,317.94 -44.703,317.896 -18.61,317.967C-15.115,317.976 -11.532,318.134 -8.161,318.926C-3.152,320.106 0.106,324.543 0,329.059" style="fill:rgb(46,147,79);fill-rule:nonzero;"/>
        </g>
        <g transform="matrix(1,0,0,1,890.9605,553.7185)">
            <path d="M0,99.539C0.185,120.72 -11.928,144.489 -41.059,148.485C-54.528,150.325 -68.516,148.996 -82.214,148.16C-87.223,147.86 -92.329,145.325 -96.907,142.886C-101.018,140.694 -104.196,140.527 -108.263,142.904C-119.91,149.691 -132.763,150.369 -145.739,148.917C-149.709,148.468 -153.803,146.998 -157.289,145.017C-161.849,142.438 -165.546,142.446 -170.335,144.77C-183.276,151.065 -197.009,151.021 -210.602,147.306C-215.558,145.95 -219.995,142.728 -225.25,140.069C-226.324,140.571 -227.927,141.187 -229.406,142.033C-237.971,146.909 -247.039,149.48 -257.03,149.427C-288.089,149.242 -319.155,149.533 -350.222,149.322C-380.409,149.11 -400.304,129.32 -400.524,99.072C-400.806,60.69 -400.789,22.308 -400.48,-16.066C-400.428,-22.343 -399.292,-29.06 -396.792,-34.764C-392.029,-45.654 -382.442,-50.434 -369.616,-51.508C-369.079,-48.638 -368.119,-45.707 -368.04,-42.74C-367.785,-33.373 -367.776,-23.998 -367.802,-14.623C-367.917,19.948 -368.093,54.519 -368.199,89.089C-368.207,93.773 -368.19,98.482 -367.767,103.139C-367.063,110.789 -362.538,115.429 -355.055,116.547C-353.031,116.855 -350.971,116.952 -348.919,116.978C-320.502,117.348 -292.085,117.682 -263.668,118.035C-263.369,118.035 -263.078,118.044 -262.788,118.035C-245.665,117.471 -238.033,112.207 -238.852,93.429C-239.133,86.994 -239.045,80.533 -238.763,74.097C-238.218,61.447 -229.441,50.346 -217.459,46.86C-216.077,46.455 -214.59,46.208 -213.155,46.191C-211.746,46.164 -210.346,46.525 -207.644,46.895C-207.371,53.216 -206.904,58.736 -206.948,64.246C-207.045,75.083 -207.538,85.911 -207.609,96.739C-207.626,99.917 -207.036,103.148 -206.288,106.247C-204.298,114.496 -200.698,117.154 -192.705,116.688C-185.257,116.248 -181.26,112.48 -180.899,104.196C-180.415,93.086 -180.635,81.941 -180.503,70.814C-180.362,59.431 -176.903,49.545 -167.492,42.37C-161.444,37.757 -157.65,36.745 -148.574,37.924C-148.371,40.803 -147.975,43.884 -147.975,46.974C-147.94,63.965 -148.072,80.955 -147.966,97.954C-147.948,101.405 -147.667,105.023 -146.619,108.281C-144.568,114.654 -140.404,117.242 -134.048,116.978C-127.507,116.696 -124.127,114.029 -122.507,107.119C-121.644,103.448 -121.186,99.609 -121.125,95.841C-120.931,82.663 -120.966,69.476 -120.975,56.297C-120.975,43.004 -109.416,29.333 -96.229,27.123C-91.766,26.375 -89.855,27.713 -89.116,32.519C-88.72,35.107 -88.729,37.775 -88.641,40.407C-87.989,61.482 -87.391,82.566 -86.695,103.641C-86.422,112.013 -84.257,114.425 -76.404,116.38C-65.329,119.135 -54.281,118.246 -43.295,116.177C-38.022,115.182 -34.254,111.714 -33.127,106.388C-32.158,101.845 -31.604,97.127 -31.586,92.479C-31.445,54.985 -31.542,17.483 -31.437,-20.019C-31.393,-34.377 -25.001,-44.237 -12.756,-48.876C-9.331,-50.179 -5.537,-50.505 -0.695,-51.526C-0.484,-46.984 -0.185,-43.594 -0.176,-40.214C-0.132,6.373 -0.405,52.961 0,99.539" style="fill:rgb(46,147,79);fill-rule:nonzero;"/>
        </g>
        <g transform="matrix(1,0,0,1,430.2479,628.124)">
            <path d="M0,-6.99C-0.335,0.634 -7.087,5.273 -15.591,5.185C-23.549,5.097 -29.201,0.44 -30.248,-7.078C-31.683,-17.378 -27.88,-26.128 -21.524,-33.814C-16.092,-40.372 -9.772,-45.839 0.158,-46.913C0.158,-33.188 0.563,-20.072 0,-6.99M32.66,-77.064C32.651,-83.297 31.965,-84.283 25.688,-84.415C9.587,-84.75 -5.643,-80.885 -20.116,-74.01C-44.457,-62.459 -58.674,-43.462 -62.468,-16.621C-66.122,9.226 -48.841,32.801 -22.95,36.41C-17.078,37.229 -11.066,37.053 -5.009,37.335C-9.886,42.097 -13.962,43.638 -23.126,43.7C-37.194,43.796 -51.262,43.867 -65.329,43.62C-69.969,43.541 -74.661,42.766 -79.212,41.78C-84.072,40.724 -87.954,37.995 -88.693,32.643C-89.574,26.304 -90.551,19.913 -90.604,13.539C-90.745,-4.323 -90.384,-22.193 -90.331,-40.064C-90.304,-46.49 -91.449,-47.503 -97.514,-46.42C-109.637,-44.237 -117.692,-36.974 -120.87,-25.301C-122.525,-19.209 -122.481,-12.571 -122.648,-6.162C-122.956,4.956 -122.419,16.11 -123,27.22C-123.546,37.555 -127.622,41.675 -137.693,42.141C-149.656,42.687 -161.664,42.766 -173.637,42.397C-183.391,42.088 -187.194,38.646 -189.5,29.192C-190.319,25.838 -190.389,22.246 -190.398,18.76C-190.442,-3.513 -190.345,-25.776 -190.354,-48.049C-190.354,-51.13 -190.653,-54.211 -190.856,-58.058C-216.438,-58.7 -239.521,-54.035 -260.015,-39.809C-283.159,-23.743 -295.131,-1.805 -293.582,26.718C-292.622,44.325 -284.47,57.864 -269.487,67.231C-252.629,77.76 -233.878,74.819 -215.549,74.696C-212.644,74.67 -211.429,72.275 -211.896,69.722C-213.014,63.692 -214.572,57.952 -219.159,53.207C-226.175,45.953 -235.075,44.025 -244.398,42.291C-257.955,39.764 -264.962,29.209 -261.687,15.969C-260.235,10.089 -257.972,4.129 -254.786,-1.004C-247.831,-12.193 -236.897,-17.932 -223.34,-22.035C-223.023,-17.633 -222.68,-14.543 -222.592,-11.435C-222.213,3.195 -222.521,17.888 -221.43,32.467C-219.625,56.544 -197.731,75.031 -175.503,74.96C-163.196,74.916 -150.88,74.907 -138.573,74.934C-129.541,74.951 -121.266,72.46 -113.642,67.653C-111.212,66.122 -108.686,64.748 -106.062,63.216C-96.379,71.632 -85.225,74.687 -73.244,74.828C-53.612,75.048 -33.963,75.33 -14.341,74.819C-0.352,74.458 11.612,68.939 21.013,58.049C29.544,48.172 32.828,36.648 32.836,24.007C32.872,-9.684 32.731,-43.374 32.66,-77.064" style="fill:rgb(46,147,79);fill-rule:nonzero;"/>
        </g>
        <g transform="matrix(1,0,0,1,715.2904,872.0807)">
            <path d="M0,68.244C-0.079,72.848 -0.775,77.576 -2.025,82.004C-4.014,89.02 -10.177,93.325 -17.008,93.325C-24.077,93.325 -30.53,88.615 -32.555,81.458C-33.497,78.139 -33.954,74.574 -33.981,71.114C-34.148,54.168 -33.981,37.212 -34.157,20.266C-34.271,9.464 -35.072,-1.329 -34.984,-12.13C-34.923,-18.794 -34.386,-25.591 -32.951,-32.087C-31.137,-40.274 -25.741,-44.077 -17.968,-44.183C-9.728,-44.298 -3.953,-40.371 -1.646,-32.395C-0.607,-28.813 -0.194,-24.939 -0.159,-21.189C0.009,-6.285 -0.088,8.619 -0.088,23.532L0.088,23.532C0.088,38.436 0.246,53.34 0,68.244M32.951,77.884C33.127,42.169 33.188,6.454 32.801,-29.253C32.74,-35.512 31.586,-42.422 28.734,-47.889C18.047,-68.375 1.391,-79.115 -22.589,-77.178C-44.712,-75.4 -64.449,-57.027 -66.597,-35.116C-67.337,-27.554 -67.75,-19.93 -67.794,-12.333C-67.953,14.306 -67.935,40.936 -67.856,67.575C-67.847,72.531 -67.389,77.505 -66.835,82.435C-64.396,104.126 -49.219,120.166 -28.523,125.342C-23.214,126.672 -17.043,125.615 -12.307,127.851C-7.536,130.105 -4.367,135.501 0.062,138.785C11.62,147.359 30.644,139.551 32.396,125.783C32.933,121.53 31.982,118.37 27.44,116.847C24.781,115.958 22.334,114.461 18.733,112.727C20.855,109.699 21.938,108.017 23.153,106.433C29.65,98.017 32.898,88.351 32.951,77.884" style="fill:rgb(46,147,79);fill-rule:nonzero;"/>
        </g>
        <g transform="matrix(1,0,0,1,875.537,869.2206)">
            <path d="M0,59.07C5.106,36.032 9.983,14.023 14.86,-7.994C15.203,-7.976 15.556,-7.958 15.899,-7.941C20.468,13.953 25.028,35.847 29.861,59.008C19.623,59.607 10.494,59.352 0,59.07M77.24,123.017C62.865,58.894 48.445,-5.229 33.998,-69.335C33.682,-70.735 32.96,-72.038 31.921,-74.67C23.021,-74.67 14.561,-74.511 6.101,-74.714C-2.518,-74.916 -3.178,-74.608 -5.053,-66.087C-11.946,-34.721 -18.725,-3.328 -25.732,28.012C-30.829,50.812 -36.226,73.543 -41.49,96.308C-43.4,104.565 -45.39,112.805 -47.133,121.098C-47.802,124.276 -48.128,127.604 -43.867,128.986C-31.613,132.939 -15.723,124.963 -11.814,112.568C-10.414,108.131 -9.789,103.447 -8.812,98.879C-7.923,94.732 -6.039,92.214 -1.127,92.347C9.701,92.628 20.547,92.514 31.375,92.408C35.592,92.364 37.969,94.09 38.629,98.298C39.219,102.048 39.853,105.807 40.698,109.504C44.43,125.799 61.121,133.986 77.276,127.12C77.276,125.861 77.54,124.382 77.24,123.017" style="fill:rgb(46,147,79);fill-rule:nonzero;"/>
        </g>
        <g transform="matrix(1,0,0,1,175.6912,866.9053)">
            <path d="M0,61.13C-0.291,58.744 -1.048,56.72 -0.687,54.915C3.424,34.438 7.703,13.997 11.946,-6.462C12.571,-6.462 13.196,-6.453 13.821,-6.453C18.337,15.819 22.853,38.083 27.519,61.13L0,61.13ZM74.186,121.829C64.449,78.208 54.607,34.606 44.844,-9.015C40.689,-27.555 36.595,-46.112 32.616,-64.687C31.762,-68.666 30.706,-72.337 26.067,-72.839C15.899,-73.948 5.722,-74.018 -4.014,-72.469C-9.208,-58.586 -49.272,123.81 -48.603,129.963C-32.863,135.148 -15.635,127.639 -12.8,111.996C-12.017,107.682 -10.714,103.474 -9.86,99.169C-9.243,96.044 -7.509,94.679 -4.402,94.688C7.025,94.732 18.452,94.776 29.887,94.732C33.725,94.715 35.821,96.44 36.613,100.181C37.643,105.05 38.779,109.892 40.073,114.689C41.745,120.913 45.24,125.905 51.253,128.59C58.63,131.9 66.315,132.622 75.083,130.588C74.775,127.454 74.793,124.576 74.186,121.829" style="fill:rgb(46,147,79);fill-rule:nonzero;"/>
        </g>
        <g transform="matrix(1,0,0,1,546.2404,865.9636)">
            <path d="M0,61.878C3.143,38.725 8.812,16.647 14.525,-5.494C19.367,16.796 25.503,38.584 28.813,61.878L0,61.878ZM76.483,124.452C72.178,104.468 67.891,84.476 63.331,64.545C59.678,48.594 55.452,32.765 51.825,16.814C47.168,-3.707 42.863,-24.306 38.365,-44.862C36.507,-53.366 34.527,-61.853 32.519,-70.735C21.63,-71.052 11.427,-71.387 1.215,-71.633C-2.465,-71.712 -3.724,-69.159 -4.446,-66.069C-6.374,-57.812 -8.478,-49.598 -10.309,-41.323C-16.48,-13.337 -22.44,14.701 -28.725,42.66C-34.245,67.186 -40.161,91.616 -45.751,116.124C-46.842,120.887 -47.265,125.808 -48.189,131.979C-41.376,131.979 -36.102,132.595 -31.032,131.847C-20.776,130.341 -14.085,124.382 -11.761,114.029C-10.863,110.032 -9.833,106.062 -9.191,102.021C-8.46,97.443 -6.048,95.515 -1.417,95.612C6.198,95.78 13.83,95.63 21.445,95.595C39.14,95.498 37.801,95.797 40.099,110.569C42.775,127.832 56.086,133.59 70.691,132.498C76.562,132.058 77.768,130.421 76.483,124.452" style="fill:rgb(46,147,79);fill-rule:nonzero;"/>
        </g>
        <g transform="matrix(1,0,0,1,469.3257,867.8291)">
            <path d="M0,49.158C7.791,68.244 7.817,87.514 -2.192,105.895C-13.029,125.817 -36.032,134.717 -57.864,128.854C-83.816,121.891 -95.129,98.641 -95.252,79.415C-95.278,75.022 -95.234,70.629 -95.164,66.236C-95.12,63.736 -94.451,61.738 -91.598,60.937C-82.293,58.322 -70.902,61.791 -65.629,69.388C-64.026,71.703 -63.173,74.608 -62.319,77.355C-61.72,79.283 -61.896,81.44 -61.385,83.403C-59.211,91.828 -51.86,97.972 -44.589,97.585C-36.868,97.18 -29.623,90.058 -28.347,81.51C-26.868,71.518 -29.632,62.469 -37.062,55.963C-45.821,48.295 -55.329,41.367 -65.03,34.914C-76.069,27.572 -84.882,18.496 -90.357,6.453C-99.336,-13.319 -98.28,-47.766 -73.816,-64.88C-44.245,-85.559 0.599,-67.724 4.613,-30.397C5.212,-24.878 5.696,-19.323 5.766,-13.777C5.81,-10.678 4.895,-7.571 4.446,-4.657C-3.064,-2.297 -9.816,-3.002 -16.075,-5.546C-24.183,-8.838 -27.563,-15.687 -28.408,-24.244C-29.412,-34.289 -35.724,-40.09 -44.914,-40.143C-54.334,-40.196 -61.139,-33.778 -62.099,-23.751C-62.979,-14.49 -60.76,-5.88 -53.55,0.124C-45.504,6.832 -36.833,12.906 -27.959,18.505C-15.749,26.225 -5.493,35.689 0,49.158" style="fill:rgb(46,147,79);fill-rule:nonzero;"/>
        </g>
        <g transform="matrix(1,0,0,1,350.4898,797.5702)">
            <path d="M0,196.798C-0.255,198.356 -3.011,200.355 -4.833,200.645C-8.847,201.261 -13.011,200.953 -17.114,200.953C-28.84,200.971 -40.583,200.451 -52.283,201.059C-68.182,201.895 -76.263,193.444 -76.078,176.999C-75.682,140.378 -75.902,103.747 -75.876,67.125C-75.858,47.784 -75.858,28.452 -75.814,9.111C-75.805,6.479 -75.656,3.847 -75.471,1.215C-75.277,-1.514 -73.71,-2.861 -71.016,-3.319C-60.523,-5.097 -49.95,-0.572 -44.756,8.759C-43.154,11.638 -42.573,15.415 -42.546,18.795C-42.362,42.229 -42.45,65.673 -42.45,89.107L-42.018,89.107C-42.018,112.251 -42.053,135.404 -42.009,158.548C-41.983,167.747 -41.86,167.791 -32.625,167.862C-28.523,167.888 -24.394,167.624 -20.318,167.985C-2.703,169.569 2.104,183.875 0,196.798" style="fill:rgb(46,147,79);fill-rule:nonzero;"/>
        </g>
        <g transform="matrix(1,0,0,1,650.1987,297.2772)">
            <path d="M0,107.63C-0.872,113.352 -5.687,117.349 -10.89,117.058C-15.749,116.785 -20.071,112.762 -20.793,107.472C-21.515,102.251 -21.744,96.978 -22.51,91.775C-27.757,56.351 -56.244,26.199 -91.193,18.937C-141.32,8.522 -188.294,39.387 -198.409,89.53C-199.554,95.244 -199.422,101.203 -200.319,106.97C-201.314,113.361 -206.235,117.463 -211.632,117.005C-217.248,116.539 -221.122,112.093 -221.447,105.491C-221.976,94.513 -219.722,83.94 -216.57,73.526C-204.263,32.89 -166.462,0.987 -122.252,-3.82C-66.94,-9.833 -11.013,28.136 -0.863,89.249C-0.29,92.708 -0.273,96.256 0.062,100.517C0.062,102.383 0.387,105.059 0,107.63" style="fill:rgb(46,147,79);fill-rule:nonzero;"/>
        </g>
        <g transform="matrix(1,0,0,1,804.6265,819.5691)">
            <path d="M0,152.245C-0.009,171.744 -11.761,181.234 -32.687,177.722C-33.136,172.017 -34.034,165.987 -34.007,159.957C-33.77,106.644 -33.4,53.34 -32.942,0.027C-32.916,-3.424 -32.352,-7.007 -31.305,-10.299C-27.07,-23.531 -14.217,-28.989 -0.484,-23.047C-0.344,-20.203 -0.07,-17.034 -0.07,-13.865C-0.018,41.499 0.035,96.872 0,152.245" style="fill:rgb(46,147,79);fill-rule:nonzero;"/>
        </g>
        <g transform="matrix(1,0,0,1,952.2756,534.2273)">
            <path d="M0,136.584C-0.035,155.714 -11.629,167.457 -31.622,168.029C-31.965,163.566 -32.546,159.543 -32.555,155.52C-32.607,132.666 -32.484,109.813 -32.493,86.96C-32.511,60.884 -32.704,34.809 -32.572,8.733C-32.546,2.914 -32.114,-3.028 -30.82,-8.671C-28.532,-18.724 -22.255,-25.952 -12.554,-29.623C-9.226,-30.881 -5.396,-30.794 -0.986,-31.445C-0.634,-27.334 -0.185,-24.481 -0.185,-21.638C-0.07,31.103 0.097,83.843 0,136.584" style="fill:rgb(46,147,79);fill-rule:nonzero;"/>
        </g>
        <g transform="matrix(1,0,0,1,592.1495,353.6715)">
            <path d="M0,50.91C-1.303,56.121 -5.123,59.044 -10.027,59.097C-15.115,59.141 -19.446,55.673 -20.608,50.329C-21.41,46.64 -21.48,42.758 -22.572,39.166C-26.903,24.984 -39.853,16.137 -54.563,16.991C-69,17.827 -80.885,28.558 -83.455,43.075C-83.86,45.381 -84.107,47.714 -84.635,49.986C-86.044,56.069 -90.216,59.44 -95.683,59.07C-101.15,58.701 -104.944,54.651 -105.446,48.595C-105.534,47.433 -105.455,46.253 -105.455,46.191C-104.927,22.097 -85.436,0.168 -62.248,-3.503C-30.442,-8.53 -3.284,12.026 0.37,44.008C0.634,46.271 0.555,48.709 0,50.91" style="fill:rgb(46,147,79);fill-rule:nonzero;"/>
        </g>
        <g transform="matrix(-0.012034,-0.999928,-0.999928,0.012034,268.125982,719.122436)">
            <path d="M-18.742,-18.765C-28.462,-18.789 -36.748,-10.166 -36.75,-0.034C-36.757,10.302 -28.77,18.544 -18.742,18.546C-8.952,18.543 -0.28,9.74 -0.433,-0.039C-0.597,-9.994 -9.145,-18.739 -18.742,-18.765" style="fill:rgb(46,147,79);fill-rule:nonzero;"/>
        </g>
        <g transform="matrix(0.032422,-0.999474,-0.999474,-0.032422,308.992926,719.444466)">
            <path d="M-19.407,-16.614C-28.377,-17.046 -35.967,-9.796 -36.396,-0.386C-36.892,10.299 -29.126,19.624 -19.407,20.027C-9.037,20.452 -0.431,12.319 -0.016,1.701C0.364,-8.143 -8.028,-16.069 -19.407,-16.614" style="fill:rgb(46,147,79);fill-rule:nonzero;"/>
        </g>
        <g transform="matrix(0.070803,-0.99749,-0.99749,-0.070803,214.005753,519.28925)">
            <path d="M-17.874,-17.743C-27.741,-18.488 -35.778,-11.433 -36.735,-1.193C-36.648,11.637 -32.119,17.201 -17.874,18.936C-10.243,19.856 -1.192,10.588 -0.324,1.472C0.565,-7.953 -7.672,-16.975 -17.874,-17.743" style="fill:rgb(46,147,79);fill-rule:nonzero;"/>
        </g>
        <g transform="matrix(-0.025683,-0.99967,-0.99967,0.025683,172.393544,519.656592)">
            <path d="M-18.14,-19.115C-28.271,-18.908 -36.883,-10.338 -36.671,-0.665C-36.439,9.711 -28.362,17.658 -18.14,17.563C-8.078,17.462 0.182,8.849 -0.164,-1.181C-0.514,-11.043 -8.793,-19.311 -18.14,-19.115" style="fill:rgb(46,147,79);fill-rule:nonzero;"/>
        </g>
        <g transform="matrix(-0.002173,-0.999998,-0.999998,0.002173,398.678898,498.127882)">
            <path d="M-19.208,-17.178C-28.893,-17.201 -36.482,-9.719 -36.435,-0.185C-36.385,10.696 -28.786,19.236 -19.208,19.171C-8.989,19.105 0.13,10.097 -0.024,0.238C-0.177,-9.692 -8.389,-17.139 -19.208,-17.178" style="fill:rgb(46,147,79);fill-rule:nonzero;"/>
        </g>
        <g transform="matrix(0.016281,-0.999867,-0.999867,-0.016281,436.830066,498.849787)">
            <path d="M-17.918,-18.203C-27.383,-18.198 -36.101,-9.95 -36.41,-0.701C-36.706,8.275 -26.875,18.234 -17.918,18.036C-7.471,17.801 -0.012,10.087 0.109,-0.608C0.219,-10.018 -8.162,-18.203 -17.918,-18.203" style="fill:rgb(46,147,79);fill-rule:nonzero;"/>
        </g>
    </g>
</svg>
